<?xml version="1.0" encoding="UTF-8" standalone="no"?>
<!-- Created with Inkscape (http://www.inkscape.org/) -->

<svg
   width="41.112087mm"
   height="8.9135227mm"
   viewBox="0 0 41.112087 8.9135227"
   version="1.1"
   id="svg1"
   xml:space="preserve"
   xmlns="http://www.w3.org/2000/svg"
   xmlns:svg="http://www.w3.org/2000/svg"
   xmlns:rdf="http://www.w3.org/1999/02/22-rdf-syntax-ns#"
   xmlns:cc="http://creativecommons.org/ns#"
   xmlns:dc="http://purl.org/dc/elements/1.1/"><defs
     id="defs1" /><metadata
     id="metadata1"><rdf:RDF><cc:Work
         rdf:about=""><dc:format>image/svg+xml</dc:format><dc:type
           rdf:resource="http://purl.org/dc/dcmitype/StillImage" /></cc:Work></rdf:RDF></metadata><g
     id="g14"
     transform="matrix(0.30450183,0,0,0.30450183,-11.223623,-35.425122)"><g
       style="fill:none"
       id="g1"
       transform="matrix(0.85204487,0,0,0.85204487,36.641639,116.26225)"><path
         id="path1"
         d="m 50.677901,3.4005271 c -2.240098,0 -4.819936,0.1016892 -7.739533,0.305069 V 30.093759 h 8.230797 c 4.411144,0 7.255305,-1.236577 8.536473,-3.706921 -1.039382,0.570333 -2.121818,0.66327 -3.059788,0.336606 -0.199601,0.464246 -0.436081,0.880286 -0.719914,1.234832 -0.931199,1.169399 -2.516773,1.754602 -4.756771,1.754602 H 46.072148 V 16.328052 h 5.587675 c 1.500103,0.04045 2.700944,0.325245 3.612914,0.847279 0.09283,-0.2672 0.24617,-0.707511 0.310527,-0.89216 -0.405359,-0.09319 -0.831002,-0.168163 -1.280925,-0.221978 0.542428,-0.110974 1.041023,-0.251518 1.502904,-0.415452 0.262662,-0.748965 0.508735,-1.435416 1.533836,-4.303717 C 57.911233,9.6860714 58.47249,8.0040043 59.056077,6.3244586 57.706794,4.3759952 54.914888,3.4005271 50.677901,3.4005271 Z m 0,0.3814879 c 2.088998,0 3.662069,0.5212453 4.719168,1.5635543 1.057099,1.016889 1.585995,2.4911088 1.585995,4.4231968 0,3.9658959 -1.774445,6.0252989 -5.323241,6.1777989 H 46.072148 V 4.0488745 C 47.683046,3.8709247 49.218102,3.782015 50.677901,3.782015 Z" /><path
         id="path2"
         d="m 76.408619,11.715021 c -0.219283,0.176347 -0.375325,0.314688 -0.533113,0.453055 0.03627,0.02536 0.07279,0.05008 0.108564,0.07642 0.181724,-0.154946 0.32165,-0.332192 0.424549,-0.529475 z M 67.8958,11.988552 c -0.6773,0.37599 -1.304332,0.849014 -1.88318,1.415569 -0.103188,0.300595 -0.174119,0.504676 -0.28748,0.833329 -1.620742,4.536726 -1.35328,3.779293 -2.386574,6.753366 0.01522,3.133239 0.844458,5.456275 2.490285,6.96746 1.661096,1.525298 3.813486,2.288321 6.456182,2.288321 2.667894,0 4.857492,-0.877503 6.56899,-2.631599 1.736696,-1.754096 2.604913,-4.219674 2.604913,-7.397468 0,-0.988772 -0.08056,-1.897413 -0.241387,-2.726213 -0.204479,1.349385 -1.07091,2.399588 -2.327743,2.850545 -0.0171,2.990702 -0.644446,5.339605 -1.885605,7.044486 -1.258398,1.703296 -2.843975,2.55518 -4.756771,2.55518 -1.912896,0 -3.448562,-0.737404 -4.60636,-2.211902 -1.157698,-1.474496 -1.736406,-3.736736 -1.736406,-6.78733 0,-3.076094 0.629028,-5.466126 1.887424,-7.169424 0.170948,-0.234816 0.348881,-0.452097 0.5319,-0.655019 -0.179155,-0.363982 -0.337755,-0.735031 -0.428188,-1.129301 z" /><path
         id="path3"
         d="m 86.02284,11.525187 c -0.752181,0.254647 -1.354305,0.698634 -1.806154,1.332478 -0.452999,0.6101 -0.679885,1.410844 -0.679885,2.402343 0,0.991499 0.364831,1.868293 1.094731,2.630992 0.729899,0.737199 1.623626,1.322502 2.680725,1.754602 1.057099,0.406799 2.101781,0.826385 3.13378,1.258485 1.057099,0.4068 1.95022,0.991296 2.680119,1.753995 0.729899,0.737199 1.095337,1.728572 1.095337,2.974271 0,1.220199 -0.49098,2.2499 -1.472579,3.088899 -0.956399,0.813499 -2.177042,1.220276 -3.662041,1.220276 -0.931199,0 -1.90015,-0.152807 -2.906949,-0.457907 -0.981599,-0.305 -1.724272,-0.699067 -2.227671,-1.182066 l -0.226831,0.22865 c 1.283599,1.143999 3.209099,1.716392 5.776296,1.716392 1.182999,0 2.278,-0.139998 3.284799,-0.419697 1.031899,-0.2796 1.963035,-0.838677 2.793534,-1.677577 0.830599,-0.838999 1.246355,-1.85589 1.246355,-3.050689 0,-1.194799 -0.264801,-2.186172 -0.7933,-2.974271 -0.5286,-0.813499 -1.195341,-1.423614 -2.00084,-1.830414 -0.7802,-0.4322 -1.636011,-0.851686 -2.567311,-1.258485 -0.906099,-0.4068 -1.761304,-0.763045 -2.566703,-1.068045 -0.780299,-0.3305 -1.434738,-0.774998 -1.963237,-1.334298 -0.5286,-0.584699 -0.793301,-1.296483 -0.793301,-2.135483 0,-0.838899 0.30211,-1.589211 0.90611,-2.250111 0.07401,-0.08409 0.15423,-0.162972 0.239567,-0.237141 -0.416971,-0.174449 -0.836564,-0.341904 -1.264551,-0.485199 z" /><path
         id="path4"
         d="m 100.25676,7.2141926 v 2.2676995 c 0.85671,0.6088609 1.72936,1.2387789 2.64313,1.8959159 v -0.04549 h 5.77629 v -0.305069 h -5.77629 V 7.2141926 Z m 0,13.0106154 v 4.950245 c 0,2.008296 0.40315,3.355309 1.20815,4.041709 0.806,0.660998 2.01406,0.991625 3.62504,0.991625 0.44171,0 0.8686,-0.01937 1.28275,-0.05458 -0.0827,-0.08697 -0.1675,-0.173866 -0.24199,-0.260795 -0.13346,0.0061 -0.26656,0.01031 -0.39969,0.01031 -1.15698,0 -1.92487,-0.368349 -2.30287,-1.105647 -0.352,-0.737198 -0.52826,-1.932619 -0.52826,-3.585015 v -3.375167 c -0.89439,-0.511529 -1.77573,-1.048826 -2.64313,-1.612681 z" /><path
         id="path5"
         d="m 119.51796,10.87502 c -2.643,0 -4.83199,0.876795 -6.56899,2.630993 -0.7162,0.73424 -1.2814,1.594239 -1.69759,2.578227 0.31145,0.09828 0.62358,0.18786 0.93643,0.262007 0.46561,0.110341 0.89248,0.181296 1.3064,0.236535 0.31252,-1.083961 0.75957,-2.020875 1.34279,-2.80991 1.258,-1.728696 2.84377,-2.592783 4.75677,-2.592783 1.44381,0 2.6721,0.420373 3.68569,1.260305 0.26081,-0.162218 0.55642,-0.346301 0.88974,-0.553127 -1.32844,-0.673617 -2.87824,-1.012247 -4.65124,-1.012247 z" /><path
         id="path6"
         d="m 145.83395,19.352056 c -0.88071,0.230816 -1.76165,0.460318 -2.64312,0.688376 v 7.345916 l 0.0382,0.648347 c 0.025,0.4576 0.3017,0.915514 0.8297,1.373114 0.55398,0.457598 1.34729,0.68595 2.37929,0.68595 h 2.30288 V 29.78869 h -1.16994 l -0.41606,-0.07581 c -0.302,-0.0254 -0.60411,-0.22884 -0.90611,-0.610138 -0.277,-0.4068 -0.41484,-0.979194 -0.41484,-1.716392 z m -12.4211,8.068862 c -0.35413,0.175065 -1.3456,0.66827 -2.64312,1.304579 v 1.368262 h 2.64312 z" /><path
         d="m 17.2717,33.4444 c 8.8458,0 16.0167,-7.243 16.0167,-16.1778 0,-8.9347 -7.1709,-16.17773 -16.0167,-16.17773 -8.84573,0 -16.01663,7.24303 -16.01663,16.17773 0,8.9348 7.1709,16.1778 16.01663,16.1778 z"
         fill="#f7af24"
         stroke="#18171c"
         stroke-width="2"
         stroke-linecap="round"
         stroke-linejoin="round"
         id="path7" /><path
         d="m 17.2716,22.1207 c 2.6537,0 4.805,-2.1729 4.805,-4.8533 0,-2.6804 -2.1513,-4.8533 -4.805,-4.8533 -2.6538,0 -4.805,2.1729 -4.805,4.8533 0,2.6804 2.1512,4.8533 4.805,4.8533 z"
         fill="#f7af24"
         stroke="#18171c"
         stroke-width="2"
         stroke-linecap="round"
         stroke-linejoin="round"
         id="path8" /></g><text
       xml:space="preserve"
       style="font-style:normal;font-variant:normal;font-weight:normal;font-stretch:normal;font-size:32.9459px;font-family:'Natasha Walker';-inkscape-font-specification:'Natasha Walker';fill:#000000;stroke-width:3.0499"
       x="66.940582"
       y="142.21616"
       id="text1"><tspan
         id="tspan1"
         style="font-style:normal;font-variant:normal;font-weight:bold;font-stretch:normal;font-size:32.9459px;font-family:'Natasha Walker';-inkscape-font-specification:'Natasha Walker Bold';stroke-width:3.0499"
         x="66.940582"
         y="142.21616">Maulana</tspan></text></g></svg>
