<svg width="79" height="53" viewBox="0 0 79 53" fill="none" xmlns="http://www.w3.org/2000/svg">
<path d="M29.5885 41.9965C29.3895 41.9965 29.4094 41.9966 0.209294 32.8891C0.146413 32.8576 0.093521 32.8091 0.0565527 32.7492C0.0195844 32.6892 0 32.6201 0 32.5495C0 32.479 0.0195844 32.4099 0.0565527 32.3499C0.093521 32.29 0.146413 32.2415 0.209294 32.21L24.8313 15.0336C24.9125 14.9968 25.0041 14.99 25.0899 15.0143C25.1756 15.0387 25.25 15.0926 25.3 15.1666C25.35 15.2407 25.3723 15.3301 25.363 15.419C25.3538 15.5079 25.3135 15.5907 25.2493 15.6527L1.36377 32.3898L29.688 41.2775C29.7351 41.2841 29.7804 41.2999 29.8213 41.324C29.8623 41.3481 29.8981 41.3801 29.9268 41.4181C29.9554 41.4562 29.9764 41.4995 29.9883 41.5456C30.0003 41.5917 30.0031 41.6398 29.9966 41.687C29.99 41.7342 29.9743 41.7796 29.9502 41.8207C29.9262 41.8618 29.8943 41.8978 29.8564 41.9265C29.8185 41.9553 29.7754 41.9763 29.7294 41.9883C29.6834 42.0003 29.6356 42.0031 29.5885 41.9965Z" fill="#3B29AB"/>
<path d="M53.8131 37.2966L77.7452 19.6984L49.3458 11.7533C49.2904 11.7485 49.2367 11.7316 49.1886 11.7037C49.1405 11.6759 49.0992 11.6379 49.0675 11.5924C49.0358 11.5469 49.0146 11.4949 49.0053 11.4403C48.996 11.3857 48.9989 11.3297 49.0138 11.2764C49.0287 11.223 49.0552 11.1736 49.0914 11.1315C49.1277 11.0895 49.1728 11.0559 49.2235 11.0332C49.2742 11.0105 49.3293 10.9992 49.3849 11C49.4405 11.0009 49.4952 11.014 49.5452 11.0383C70.8847 16.6793 76.768 18.3676 78.3635 18.9833C79.0814 19.2614 79.2609 19.4203 78.5429 20.036C77.2067 21.1285 72.2608 24.7434 54.3117 37.9123C54.2297 37.9782 54.1248 38.0089 54.0201 37.9977C53.9154 37.9866 53.8194 37.9344 53.7533 37.8528C53.6872 37.7711 53.6563 37.6666 53.6675 37.5623C53.6787 37.458 53.7311 37.3625 53.8131 37.2966Z" fill="#3B29AB"/>
<path d="M34.0029 52.5732L44.2854 0.305468C44.304 0.20795 44.3585 0.121924 44.4373 0.065916C44.5161 0.00990814 44.6128 -0.0116076 44.7067 0.00599378C44.8017 0.0298514 44.8844 0.0906996 44.9378 0.176073C44.9912 0.261447 45.0113 0.364888 44.9939 0.46519L34.7114 52.7329C34.6844 52.8235 34.6259 52.9003 34.5474 52.9482C34.4688 52.9961 34.3759 53.0115 34.2869 52.9914C34.198 52.9714 34.1195 52.9173 34.0669 52.8399C34.0143 52.7625 33.9915 52.6673 34.0029 52.5732Z" fill="#3B29AB"/>
</svg>
