<svg width="68" height="69" viewBox="0 0 68 69" fill="none" xmlns="http://www.w3.org/2000/svg">
<path d="M66.4986 27.2252L35.2301 32.8496L29.6748 1.19216C29.6383 1.00223 29.5652 0.821403 29.4597 0.660065C29.3542 0.498727 29.2184 0.360045 29.06 0.25186C28.9016 0.143674 28.7236 0.0681441 28.5363 0.0295811C28.349 -0.008982 28.1561 -0.00986277 27.9685 0.0270677C27.7809 0.0639982 27.6024 0.138008 27.443 0.24481C27.2836 0.351612 27.1466 0.489108 27.0397 0.649521C26.9329 0.809934 26.8583 0.990113 26.8202 1.17972C26.7821 1.36932 26.7813 1.56467 26.8178 1.7546L32.2938 33.3317L1.02521 38.9561C0.687038 39.0718 0.400384 39.3052 0.216222 39.6148C0.0320609 39.9244 -0.0376971 40.2901 0.0194407 40.6468C0.0765784 41.0035 0.256873 41.3281 0.528227 41.5629C0.799581 41.7977 1.14441 41.9275 1.50136 41.929L32.7699 36.3046L38.3252 67.962C38.4395 68.3044 38.67 68.5946 38.9758 68.7811C39.2816 68.9675 39.6428 69.0382 39.9951 68.9803C40.3475 68.9225 40.6681 68.7399 40.9 68.4651C41.1319 68.1904 41.2601 67.8413 41.2616 67.4799L35.7062 35.8225L66.9748 30.1981C67.313 30.0824 67.5996 29.849 67.7838 29.5394C67.9679 29.2298 68.0377 28.8641 67.9806 28.5074C67.9234 28.1507 67.7431 27.8261 67.4718 27.5913C67.2004 27.3565 66.8556 27.2267 66.4986 27.2252Z" fill="#F7AF24"/>
</svg>
