<svg width="83" height="108" viewBox="0 0 83 108" fill="none" xmlns="http://www.w3.org/2000/svg">
<path d="M13.3081 101.833L29.4156 92.615L20.183 76.8739C20.1563 76.8013 20.1442 76.7241 20.1474 76.6467C20.1506 76.5694 20.1691 76.4935 20.2018 76.4233C20.2345 76.3532 20.2807 76.2902 20.3378 76.238C20.3949 76.1859 20.4618 76.1455 20.5345 76.1194L36.484 66.6575L27.3556 50.1826C27.3137 50.1185 27.2855 50.0463 27.2729 49.9707C27.2602 49.8951 27.2633 49.8176 27.282 49.7432C27.3007 49.6689 27.3346 49.5992 27.3815 49.5385C27.4285 49.4779 27.4874 49.4277 27.5547 49.391L43.7607 40.253L34.3126 23.6629C34.2365 23.531 34.2147 23.3745 34.2519 23.2267C34.289 23.0789 34.3822 22.9514 34.5116 22.8713C34.5837 22.8397 34.6616 22.8239 34.7401 22.8248C34.8187 22.8258 34.8962 22.8434 34.9674 22.8767C35.0386 22.9099 35.1019 22.958 35.1531 23.0176C35.2043 23.0773 35.2423 23.1472 35.2644 23.2227L45.0006 40.2876C45.0425 40.3517 45.0707 40.4238 45.0834 40.4995C45.0961 40.5751 45.093 40.6526 45.0743 40.7269C45.0556 40.8013 45.0217 40.871 44.9747 40.9316C44.9278 40.9923 44.8688 41.0425 44.8016 41.0792L28.7201 50.2413L37.8355 66.7442C37.8818 66.8856 37.8725 67.0394 37.8097 67.1744C37.7468 67.3093 37.635 67.4153 37.497 67.4707L21.6237 76.696L30.8879 92.5879C30.9295 92.6552 30.957 92.7301 30.9688 92.8083C30.9806 92.8865 30.9764 92.9663 30.9566 93.0429C30.9368 93.1195 30.9017 93.1913 30.8534 93.2539C30.8052 93.3166 30.7448 93.3688 30.6759 93.4075L14.0534 102.929C13.9081 103.028 13.7297 103.066 13.5571 103.033C13.3845 103 13.232 102.9 13.1332 102.755C13.0344 102.61 12.9973 102.431 13.0301 102.258C13.0629 102.085 13.1629 101.932 13.3081 101.833Z" fill="#5C64CF"/>
<path d="M37.8424 79.3352L53.9499 70.1172L44.6597 54.2811C44.6178 54.217 44.5896 54.1448 44.5769 54.0692C44.5642 53.9936 44.5673 53.9161 44.586 53.8418C44.6047 53.7674 44.6386 53.6977 44.6856 53.637C44.7325 53.5764 44.7915 53.5262 44.8587 53.4895L60.9793 44.2436L51.8639 27.7407C51.8176 27.5993 51.8268 27.4455 51.8897 27.3105C51.9526 27.1755 52.0644 27.0696 52.2024 27.0142L68.2374 17.6603L58.7484 1.08505C58.386 0.405562 59.3472 -0.200326 59.7653 0.505192L69.5163 17.611C69.5626 17.7524 69.5534 17.9063 69.4905 18.0412C69.4277 18.1762 69.3159 18.2821 69.1779 18.3375L53.1689 27.6355L62.2973 44.1105C62.3392 44.1746 62.3674 44.2468 62.3801 44.3224C62.3928 44.398 62.3896 44.4755 62.3709 44.5498C62.3522 44.6242 62.3184 44.6939 62.2714 44.7546C62.2245 44.8152 62.1655 44.8654 62.0982 44.9021L45.9777 54.148C55.8477 71.0713 55.4798 70.1851 55.3366 70.4924C55.1934 70.7998 56.4967 70.1155 38.4483 80.3665C38.3117 80.4471 38.1488 80.4701 37.9954 80.4303C37.842 80.3906 37.7107 80.2915 37.6304 80.1547C37.55 80.018 37.5272 79.8548 37.567 79.7011C37.6068 79.5474 37.7058 79.4158 37.8424 79.3352Z" fill="#5C64CF"/>
</svg>
