<svg width="153" height="114" viewBox="0 0 153 114" fill="none" xmlns="http://www.w3.org/2000/svg">
<path d="M152.983 34.1739L147.116 0.964718C147.094 0.812385 147.042 0.666061 146.962 0.534875C146.881 0.403689 146.775 0.290463 146.649 0.202264C146.523 0.114065 146.38 0.0527884 146.229 0.0222616C146.078 -0.00826523 145.923 -0.00738761 145.772 0.0248396L112.541 5.84315C112.388 5.8696 112.242 5.92589 112.11 6.00881C111.979 6.09172 111.866 6.19964 111.776 6.3264C111.687 6.45316 111.623 6.59628 111.589 6.74758C111.555 6.89888 111.551 7.05541 111.578 7.20822C111.604 7.36104 111.661 7.50715 111.744 7.63821C111.827 7.76927 111.935 7.88271 112.061 7.97207C112.188 8.06142 112.331 8.12493 112.483 8.15897C112.634 8.19302 112.791 8.19693 112.944 8.17048L143.398 2.79972L92.9691 74.7678L49.2577 44.1993C49.0075 44.0235 48.6981 43.9531 48.3964 44.0034C48.0947 44.0536 47.825 44.2204 47.6454 44.4678L0.306254 112.05C0.194818 112.171 0.110438 112.315 0.0587321 112.471C0.00702585 112.628 -0.0108296 112.793 0.0063165 112.957C0.0234626 113.121 0.0752252 113.28 0.158199 113.422C0.241172 113.564 0.353462 113.687 0.487624 113.783C0.621786 113.879 0.774756 113.945 0.936437 113.977C1.09812 114.01 1.26483 114.007 1.4255 113.97C1.58618 113.933 1.73715 113.863 1.86847 113.763C1.99979 113.664 2.10847 113.537 2.18727 113.393L48.8994 46.7952L92.566 77.3637C92.8266 77.5315 93.1401 77.597 93.4461 77.5474C93.7521 77.4978 94.0289 77.3367 94.2231 77.0952L145.324 4.14242L150.654 34.5767C150.68 34.7295 150.737 34.8756 150.82 35.0067C150.903 35.1377 151.011 35.2512 151.137 35.3405C151.264 35.4299 151.407 35.4934 151.559 35.5275C151.71 35.5615 151.867 35.5654 152.02 35.539C152.173 35.5125 152.319 35.4562 152.45 35.3733C152.581 35.2904 152.695 35.1825 152.784 35.0557C152.874 34.9289 152.937 34.7858 152.971 34.6345C153.005 34.4832 153.009 34.3267 152.983 34.1739Z" fill="#5C64CF"/>
</svg>
