<svg width="149" height="35" viewBox="0 0 149 35" fill="none" xmlns="http://www.w3.org/2000/svg">
<path d="M42.9386 3.7057C45.8582 3.50232 48.438 3.40063 50.6781 3.40063C56.8948 3.40063 60.0032 5.49797 60.0032 9.69263C60.0032 11.2688 59.5502 12.6289 58.6441 13.7729C57.738 14.8915 56.2908 15.6541 54.3024 16.0609C56.2153 16.2897 57.7254 16.8744 58.8329 17.815C59.9403 18.7557 60.494 20.3954 60.494 22.7342C60.494 27.6407 57.3856 30.094 51.1689 30.094H42.9386V3.7057ZM46.0721 29.7126H51.1689C53.4089 29.7126 54.9946 29.1279 55.9258 27.9585C56.8823 26.7637 57.3605 24.946 57.3605 22.5054C57.3605 20.0649 56.8823 18.4379 55.9258 17.6244C54.9694 16.8109 53.5474 16.3787 51.6597 16.3278H46.0721V29.7126ZM50.6781 3.78197C49.2183 3.78197 47.683 3.87095 46.0721 4.0489V15.9465H51.6597C55.2085 15.794 56.9829 13.7348 56.9829 9.7689C56.9829 7.83681 56.4544 6.36232 55.3973 5.34543C54.3402 4.30312 52.7671 3.78197 50.6781 3.78197Z" fill="black"/>
<path d="M72.2849 30.2465C69.6422 30.2465 67.4902 29.4838 65.8291 27.9585C64.1679 26.4332 63.3373 24.0816 63.3373 20.9038C63.3373 17.7261 64.1931 15.2601 65.9046 13.506C67.6412 11.7518 69.8309 10.8748 72.4737 10.8748C75.1416 10.8748 77.3061 11.6374 78.9673 13.1628C80.6285 14.6881 81.459 17.0397 81.459 20.2174C81.459 23.3952 80.5907 25.8612 78.854 27.6153C77.1425 29.3694 74.9528 30.2465 72.2849 30.2465ZM72.5492 11.1798C70.6363 11.1798 69.0507 12.0442 67.7922 13.7729C66.5338 15.4762 65.9046 17.8659 65.9046 20.942C65.9046 23.9926 66.4835 26.2552 67.6412 27.7297C68.799 29.2042 70.3343 29.9414 72.2472 29.9414C74.16 29.9414 75.7457 29.0898 77.0041 27.3865C78.2626 25.6578 78.8918 23.2681 78.8918 20.2174C78.8918 17.1413 78.3129 14.8661 77.1551 13.3916C75.9974 11.9171 74.462 11.1798 72.5492 11.1798Z" fill="black"/>
<path d="M94.7498 12.362C94.3471 12.0315 93.6927 11.7518 92.7866 11.523C91.9057 11.2942 91.2387 11.1798 90.7856 11.1798C90.3326 11.1798 90.0683 11.1798 89.9928 11.1798C88.6337 11.2053 87.6521 11.5612 87.048 12.2476C86.444 12.9085 86.142 13.6585 86.142 14.4974C86.142 15.3364 86.4062 16.0482 86.9348 16.6329C87.4633 17.1922 88.1177 17.6371 88.898 17.9676C89.7034 18.2726 90.5591 18.6285 91.4652 19.0353C92.3965 19.4421 93.2522 19.8615 94.0324 20.2937C94.8379 20.7005 95.5048 21.3106 96.0334 22.1241C96.5619 22.9122 96.8262 23.9037 96.8262 25.0985C96.8262 26.2933 96.4109 27.3102 95.5803 28.1492C94.7498 28.9881 93.8185 29.5474 92.7866 29.827C91.7798 30.1067 90.685 30.2465 89.502 30.2465C86.9348 30.2465 85.0093 29.6745 83.7257 28.5305L83.9522 28.3017C84.4556 28.7847 85.1981 29.1788 86.1797 29.4838C87.1865 29.7889 88.1555 29.9414 89.0867 29.9414C90.5717 29.9414 91.7924 29.5347 92.7488 28.7212C93.7304 27.8822 94.2212 26.8526 94.2212 25.6324C94.2212 24.3867 93.8563 23.3952 93.1264 22.658C92.3965 21.8953 91.503 21.3106 90.4459 20.9038C89.4139 20.4717 88.3694 20.0522 87.3123 19.6454C86.2552 19.2133 85.3617 18.6285 84.6318 17.8913C83.9019 17.1286 83.537 16.2516 83.537 15.2601C83.537 14.2686 83.7635 13.4678 84.2165 12.8577C84.6696 12.2221 85.2736 11.7773 86.0287 11.523C87.3123 11.0909 88.5959 10.8748 89.8796 10.8748C92.0441 10.8748 93.7304 11.2815 94.9385 12.095L94.7498 12.362Z" fill="black"/>
<path d="M99.4642 11.3324V11.0273H100.257V7.21397H102.9V11.0273H108.676V11.3324H102.9V25.2129C102.9 26.8653 103.076 28.0602 103.428 28.7974C103.806 29.5347 104.574 29.9033 105.731 29.9033C106.914 29.9033 108.11 29.6618 109.318 29.1788L109.431 29.4838C108.173 29.9669 106.726 30.2084 105.09 30.2084C103.479 30.2084 102.271 29.8779 101.465 29.2169C100.66 28.5305 100.257 27.1831 100.257 25.1748V11.3324H99.4642Z" fill="black"/>
<path d="M119.329 30.2465C116.687 30.2465 114.535 29.4838 112.874 27.9585C111.212 26.4332 110.382 24.0816 110.382 20.9038C110.382 17.7261 111.238 15.2601 112.949 13.506C114.686 11.7518 116.875 10.8748 119.518 10.8748C122.186 10.8748 124.351 11.6374 126.012 13.1628C127.673 14.6881 128.504 17.0397 128.504 20.2174C128.504 23.3952 127.635 25.8612 125.899 27.6153C124.187 29.3694 121.997 30.2465 119.329 30.2465ZM119.594 11.1798C117.681 11.1798 116.095 12.0442 114.837 13.7729C113.578 15.4762 112.949 17.8659 112.949 20.942C112.949 23.9926 113.528 26.2552 114.686 27.7297C115.843 29.2042 117.379 29.9414 119.292 29.9414C121.204 29.9414 122.79 29.0898 124.049 27.3865C125.307 25.6578 125.936 23.2681 125.936 20.2174C125.936 17.1413 125.357 14.8661 124.2 13.3916C123.042 11.9171 121.507 11.1798 119.594 11.1798Z" fill="black"/>
<path d="M146.438 30.094C145.406 30.094 144.613 29.8652 144.059 29.4076C143.531 28.95 143.254 28.4924 143.229 28.0348L143.191 27.3865V15.4126C143.191 13.4043 142.675 12.1205 141.643 11.5612C141.115 11.3069 140.46 11.1798 139.68 11.1798C138.069 11.1798 136.622 11.8281 135.338 13.1246C134.055 14.3957 133.413 15.5397 133.413 16.5566V30.094H130.77V11.0273H133.413V15.3745C133.841 14.2813 134.634 13.2645 135.791 12.3238C136.949 11.3578 138.22 10.8748 139.605 10.8748C140.989 10.8748 142.109 11.0146 142.965 11.2942C143.846 11.5485 144.487 11.9171 144.89 12.4001C145.519 13.1882 145.834 14.2051 145.834 15.4508V27.3865C145.834 28.1237 145.972 28.6957 146.249 29.1025C146.551 29.4838 146.853 29.6872 147.155 29.7126L147.571 29.7889H148.741V30.094H146.438Z" fill="black"/>
<path d="M17.2717 33.4444C26.1175 33.4444 33.2884 26.2014 33.2884 17.2666C33.2884 8.3319 26.1175 1.08887 17.2717 1.08887C8.42597 1.08887 1.25507 8.3319 1.25507 17.2666C1.25507 26.2014 8.42597 33.4444 17.2717 33.4444Z" fill="#F7AF24" stroke="#18171C" stroke-width="2" stroke-linecap="round" stroke-linejoin="round"/>
<path d="M17.2716 22.1207C19.9253 22.1207 22.0766 19.9478 22.0766 17.2674C22.0766 14.587 19.9253 12.4141 17.2716 12.4141C14.6178 12.4141 12.4666 14.587 12.4666 17.2674C12.4666 19.9478 14.6178 22.1207 17.2716 22.1207Z" fill="#F7AF24" stroke="#18171C" stroke-width="2" stroke-linecap="round" stroke-linejoin="round"/>
</svg>
